<?xml version="1.0" encoding="UTF-8"?>
<svg id="Capa_1" data-name="Capa 1" xmlns="http://www.w3.org/2000/svg" viewBox="0 0 395.87 309.36">
  <defs>
    <style>
      .cls-1 {
        fill: #fff;
      }
    </style>
  </defs>
  <path class="cls-1" d="M382.01,130.56c-9.41-19.74-29.97-32.49-52.38-32.49h-84.35c-5.14-.01-9.81-2.62-12.51-6.99l-40.62-65.68c-7.21-11.97-20.38-19.4-34.35-19.4s-25.83,6.63-33.29,17.74L10.59,204.57c-5.44,8.63-5.74,19.1-.81,28.03,4.93,8.93,13.95,14.26,24.06,14.26l18.46.2h.27c8.71,0,16.95-4.57,21.56-11.97l73.71-118.37c1.71-2.49,4.53-3.98,7.68-3.98,3.32,0,6.35,1.82,7.91,4.74l7.44,13.91-85.3,133.84c-4.94,7.75-5.25,17.19-.83,25.25,4.42,8.06,12.55,12.87,21.74,12.87h25.27c9.52,0,18.25-4.79,23.37-12.81l51.31-80.49,10.84,20.28c4.03,7.55,11.86,12.24,20.42,12.24h91.2c22.99,0,43.76-13.2,52.93-33.63,5.15-11.46,7.75-25.16,7.75-40.7,0-14.45-2.55-27.12-7.58-37.66ZM155.4,95.98c-8.67,0-16.73,4.3-21.55,11.51l-73.94,118.74c-1.57,2.52-4.37,4.08-7.34,4.08-.03,0-.06,0-.09,0l-18.55-.2c-4,0-7.55-2.09-9.48-5.6-1.93-3.5-1.81-7.62.32-11L138.48,32.99c4.35-6.41,11.57-10.24,19.32-10.24,8.14,0,15.8,4.33,20.05,11.38l39.53,63.92h-8.23s-.02,0-.02,0c-10.6,0-20.35,5.33-26.06,14.26l-1.86,2.9-3.02-5.64c-4.48-8.38-13.18-13.59-22.81-13.59ZM366.55,202.07c-6.47,14.42-21.25,23.74-37.65,23.74h-91.2c-2.37,0-4.53-1.3-5.65-3.38l-15.29-28.58,5.97-9.36c2.43-3.82,6.59-6.1,11.12-6.1h27c.87,7.58,3.86,14.81,8.69,20.53,6.98,8.27,17.28,12.82,29.01,12.82s22.03-4.55,29.01-12.82c7.19-8.52,10.33-20.4,8.4-31.77-.97-5.69-3.54-11.02-7.43-15.4-1.71-1.93-3.3-4.47-4.98-7.16-4.47-7.17-11.22-18-25-18s-20.53,10.83-25,18c-1.68,2.69-3.27,5.24-4.98,7.16-2.6,2.93-4.6,6.29-5.94,9.9h-28.79c-10.28,0-19.72,5.18-25.24,13.84l-67.61,106.05c-2.02,3.17-5.48,5.07-9.24,5.07h-25.27c-4.3,0-6.36-2.92-7.05-4.18-.69-1.26-2.04-4.57.27-8.19l88.59-139,8.89-13.89c2.62-4.1,7.09-6.54,11.96-6.54h0l36.11.02s.04,0,.06,0h84.32c15.99,0,30.61,9.01,37.26,22.94,3.94,8.27,5.94,18.52,5.94,30.45,0,13.17-2.11,24.55-6.29,33.85ZM277.67,169.95c.44-2.6,1.64-5.06,3.44-7.09,7.38-8.31,10.46-19.53,17.45-19.53s10.08,11.22,17.45,19.53c1.8,2.03,3,4.49,3.44,7.09,1.78,10.45-3.85,25.03-20.89,25.03s-22.67-14.59-20.89-25.03Z"/>
</svg>

